<svg width="248" height="74" viewBox="0 0 248 74" fill="none" xmlns="http://www.w3.org/2000/svg">
<g clip-path="url(#clip0_37_22146)">
<path d="M99.8149 27.0717C95.7576 22.7069 82.197 18.1982 67.9618 19.6664C66.5598 17.7665 64.9876 15.9984 63.2646 14.384C62.6952 15.0603 61.9927 15.6123 61.2009 16.0057C60.409 16.3991 59.5448 16.6254 58.6618 16.6706C57.7796 16.6247 56.9163 16.3981 56.1254 16.0047C55.3344 15.6114 54.6327 15.0598 54.0638 14.384C52.341 15.9971 50.7703 17.7653 49.3717 19.6664C35.1315 18.1784 21.5957 22.7069 17.5186 27.0717C29.3432 28.4902 36.7634 35.3251 36.7634 44.511C49.4411 44.511 55.3931 51.2864 58.6667 59.024C61.9453 51.2864 67.8973 44.511 80.575 44.511C80.575 35.3251 87.9902 28.4902 99.8198 27.0717H99.8149ZM56.0478 21.1941C55.8889 21.1941 55.7336 21.147 55.6014 21.0587C55.4693 20.9704 55.3663 20.8449 55.3055 20.6981C55.2447 20.5512 55.2287 20.3897 55.2598 20.2338C55.2908 20.0779 55.3673 19.9348 55.4797 19.8224C55.592 19.71 55.7352 19.6335 55.8911 19.6025C56.0469 19.5715 56.2085 19.5874 56.3553 19.6482C56.5022 19.709 56.6276 19.812 56.7159 19.9442C56.8042 20.0763 56.8514 20.2316 56.8514 20.3906C56.8514 20.6037 56.7667 20.808 56.616 20.9587C56.4653 21.1094 56.2609 21.1941 56.0478 21.1941ZM61.2806 21.1941C61.1217 21.1941 60.9664 21.147 60.8342 21.0587C60.7021 20.9704 60.5991 20.8449 60.5383 20.6981C60.4775 20.5512 60.4615 20.3897 60.4926 20.2338C60.5236 20.0779 60.6001 19.9348 60.7125 19.8224C60.8248 19.71 60.968 19.6335 61.1239 19.6025C61.2797 19.5715 61.4413 19.5874 61.5881 19.6482C61.735 19.709 61.8604 19.812 61.9487 19.9442C62.037 20.0763 62.0842 20.2316 62.0842 20.3906C62.0848 20.4963 62.0645 20.6011 62.0243 20.6988C61.9842 20.7966 61.925 20.8855 61.8503 20.9602C61.7755 21.0349 61.6867 21.0941 61.5889 21.1343C61.4911 21.1744 61.3863 21.1947 61.2806 21.1941Z" fill="#322D3C"/>
<path d="M99.8152 27.0717C95.758 22.7069 82.1973 18.1982 67.9621 19.6664L58.6621 27.0717H99.8152Z" fill="url(#paint0_linear_37_22146)"/>
<path d="M17.5137 27.0717H58.6817L49.3668 19.6664C35.1266 18.1982 21.566 22.7069 17.5137 27.0717Z" fill="url(#paint1_linear_37_22146)"/>
<path d="M67.9522 19.6664C66.5535 17.7669 64.9846 15.9988 63.265 14.384C62.6956 15.0603 61.9931 15.6123 61.2013 16.0057C60.4094 16.3991 59.5451 16.6254 58.6621 16.6706C57.78 16.6247 56.9167 16.3981 56.1257 16.0047C55.3348 15.6114 54.6331 15.0598 54.0642 14.384C52.3414 15.9971 50.7707 17.7653 49.3721 19.6664L58.6671 27.0717L67.9522 19.6664Z" fill="#322D3C"/>
<path d="M36.7585 44.511C36.7585 35.3251 29.3185 28.4902 17.5137 27.0717H58.6817L36.7585 44.511Z" fill="url(#paint2_linear_37_22146)"/>
<path d="M58.6617 59.024C55.3881 51.2864 49.4361 44.511 36.7583 44.511L58.6617 27.0717V59.024Z" fill="url(#paint3_linear_37_22146)"/>
<path d="M80.5702 44.511C80.5702 35.3251 87.9854 28.4902 99.815 27.0717H58.647L80.5702 44.511Z" fill="url(#paint4_linear_37_22146)"/>
<path d="M58.6621 59.024C61.9407 51.2864 67.8927 44.511 80.5704 44.511L58.6621 27.0717V59.024Z" fill="url(#paint5_linear_37_22146)"/>
<path d="M56.0482 21.1941C56.4919 21.1941 56.8517 20.8343 56.8517 20.3906C56.8517 19.9468 56.4919 19.587 56.0482 19.587C55.6044 19.587 55.2446 19.9468 55.2446 20.3906C55.2446 20.8343 55.6044 21.1941 56.0482 21.1941Z" fill="white"/>
<path d="M61.2811 21.1941C61.7248 21.1941 62.0846 20.8343 62.0846 20.3906C62.0846 19.9468 61.7248 19.587 61.2811 19.587C60.8373 19.587 60.4775 19.9468 60.4775 20.3906C60.4775 20.8343 60.8373 21.1941 61.2811 21.1941Z" fill="white"/>
<path d="M131.976 37.0462C131.955 35.6602 132.223 34.285 132.764 33.0088C133.266 31.8486 134.004 30.8062 134.932 29.9485C135.884 29.0904 136.997 28.4296 138.206 28.0042C140.862 27.0983 143.743 27.0983 146.399 28.0042C147.612 28.4317 148.729 29.0922 149.688 29.9485C150.623 30.8027 151.365 31.8458 151.865 33.0088C152.406 34.285 152.675 35.6602 152.654 37.0462C152.672 38.4432 152.404 39.8291 151.865 41.1184C151.367 42.3056 150.625 43.3751 149.688 44.2581C148.734 45.1306 147.616 45.8049 146.399 46.2421C143.75 47.1878 140.855 47.1878 138.206 46.2421C136.992 45.8072 135.879 45.1324 134.932 44.2581C134.001 43.3719 133.263 42.303 132.764 41.1184C132.226 39.8291 131.958 38.4432 131.976 37.0462ZM138.622 37.0462C138.617 37.6185 138.711 38.1874 138.9 38.7277C139.069 39.2101 139.329 39.6561 139.664 40.0421C139.986 40.4072 140.384 40.6982 140.829 40.8952C141.299 41.0991 141.806 41.2022 142.317 41.1978C142.813 41.2038 143.303 41.1038 143.757 40.9044C144.21 40.7051 144.616 40.4111 144.946 40.0421C145.287 39.6581 145.549 39.2117 145.72 38.7277C145.909 38.1874 146.003 37.6185 145.998 37.0462C146.003 36.4868 145.909 35.9309 145.72 35.4045C145.554 34.9329 145.291 34.5018 144.946 34.1397C144.604 33.7905 144.195 33.5143 143.743 33.3276C143.291 33.1409 142.806 33.0477 142.317 33.0534C141.807 33.0466 141.3 33.1445 140.829 33.3411C140.39 33.5237 139.993 33.7957 139.664 34.1397C139.324 34.5036 139.064 34.9344 138.9 35.4045C138.711 35.9309 138.617 36.4868 138.622 37.0462Z" fill="#322D3C"/>
<path d="M154.846 37.1504C154.827 35.7613 155.095 34.3832 155.635 33.103C156.133 31.9337 156.866 30.8788 157.787 30.003C158.718 29.1343 159.812 28.4598 161.007 28.019C162.276 27.5501 163.621 27.3148 164.975 27.3246C166.362 27.317 167.74 27.552 169.047 28.019C170.229 28.4269 171.318 29.0659 172.251 29.8989L168.417 34.5216C168.072 34.072 167.62 33.7157 167.102 33.485C166.548 33.2412 165.947 33.1194 165.342 33.1278C164.832 33.1227 164.327 33.2171 163.854 33.4056C163.412 33.5939 163.015 33.8727 162.688 34.224C162.335 34.5879 162.063 35.0223 161.889 35.4987C161.689 36.0311 161.589 36.5963 161.597 37.1653C161.589 37.7271 161.691 38.2851 161.899 38.807C162.09 39.271 162.366 39.695 162.713 40.057C163.052 40.4022 163.459 40.674 163.908 40.8555C164.368 41.0408 164.86 41.1352 165.356 41.1333C166.002 41.1514 166.64 40.9973 167.207 40.6869C167.683 40.424 168.1 40.0661 168.432 39.6354L172.266 44.2333C171.367 45.1013 170.303 45.7794 169.136 46.2272C166.516 47.212 163.631 47.2261 161.002 46.2669C159.808 45.8253 158.717 45.1455 157.794 44.269C156.872 43.3924 156.137 42.3374 155.635 41.168C155.095 39.8982 154.827 38.5299 154.846 37.1504Z" fill="#322D3C"/>
<path d="M182.895 46.9762C181.604 47.0021 180.319 46.7971 179.101 46.371C178.095 46.0171 177.177 45.4522 176.407 44.7144C175.691 44.0203 175.141 43.1723 174.8 42.2344C174.447 41.2445 174.271 40.2002 174.28 39.1493V27.8504H180.544V38.4648C180.498 39.2161 180.727 39.9585 181.189 40.553C181.675 41.0328 182.331 41.3018 183.014 41.3018C183.697 41.3018 184.353 41.0328 184.839 40.553C185.301 39.9585 185.53 39.2161 185.484 38.4648V27.8504H191.714V39.1493C191.722 40.2042 191.531 41.2511 191.149 42.2344C190.783 43.175 190.212 44.0222 189.477 44.7144C188.688 45.4518 187.754 46.0161 186.734 46.371C185.5 46.7971 184.2 47.002 182.895 46.9762Z" fill="#322D3C"/>
<path d="M195.573 27.8504H201.872V41.0639H208.047V46.4504H195.573V27.8504Z" fill="#322D3C"/>
<path d="M216.588 27.8504H223.235L230.486 46.4504H223.696L222.704 43.7175H216.797L215.879 46.4504H209.257L216.588 27.8504ZM219.822 34.3381L218.294 38.936H221.315L219.822 34.3381Z" fill="#322D3C"/>
<path d="M128.881 32.612C128.299 31.4817 127.447 30.5123 126.401 29.7898C125.329 29.063 124.124 28.5572 122.854 28.3018C121.468 28.0092 120.055 27.8645 118.638 27.8703H109.81C110.558 28.374 111.167 29.0588 111.58 29.8609C111.992 30.6631 112.196 31.5565 112.171 32.4583C112.2 33.4029 111.976 34.338 111.521 35.1667C111.067 35.9953 110.399 36.6871 109.586 37.1703C110.399 37.6534 111.067 38.3452 111.521 39.1738C111.976 40.0025 112.2 40.9377 112.171 41.8823C112.196 42.784 111.992 43.6774 111.58 44.4796C111.167 45.2817 110.558 45.9665 109.81 46.4703H119.164C120.514 46.475 121.858 46.2897 123.157 45.9197C124.385 45.5789 125.536 45.0028 126.545 44.2234C127.544 43.4414 128.35 42.4401 128.901 41.297C129.514 39.9728 129.815 38.5251 129.779 37.0661C129.84 35.531 129.532 34.0035 128.881 32.612ZM122.284 40.1215C121.494 40.7563 120.365 41.0738 118.896 41.0738H117.741V33.1675H119.129C120.266 33.1062 121.387 33.4586 122.284 34.1595C122.681 34.5094 122.993 34.9447 123.198 35.4327C123.402 35.9206 123.493 36.4485 123.465 36.9768C123.465 38.4483 123.071 39.4965 122.284 40.1215Z" fill="#322D3C"/>
</g>
<defs>
<linearGradient id="paint0_linear_37_22146" x1="59.0043" y1="23.2277" x2="99.473" y2="23.2277" gradientUnits="userSpaceOnUse">
<stop stop-color="#322D3C"/>
<stop offset="1" stop-color="#7D7887"/>
</linearGradient>
<linearGradient id="paint1_linear_37_22146" x1="17.5137" y1="23.2277" x2="58.3742" y2="23.2277" gradientUnits="userSpaceOnUse">
<stop stop-color="#322D3C"/>
<stop offset="1" stop-color="#7D7887"/>
</linearGradient>
<linearGradient id="paint2_linear_37_22146" x1="58.2948" y1="27.0072" x2="33.0335" y2="34.1298" gradientUnits="userSpaceOnUse">
<stop stop-color="#322D3C"/>
<stop offset="1" stop-color="#7D7887"/>
</linearGradient>
<linearGradient id="paint3_linear_37_22146" x1="49.6741" y1="47.6408" x2="59.3412" y2="27.3494" gradientUnits="userSpaceOnUse">
<stop stop-color="#322D3C"/>
<stop offset="1" stop-color="#7D7887"/>
</linearGradient>
<linearGradient id="paint4_linear_37_22146" x1="84.6275" y1="34.3579" x2="58.518" y2="27.6322" gradientUnits="userSpaceOnUse">
<stop stop-color="#322D3C"/>
<stop offset="1" stop-color="#7D7887"/>
</linearGradient>
<linearGradient id="paint5_linear_37_22146" x1="58.7762" y1="27.8206" x2="67.7042" y2="47.5466" gradientUnits="userSpaceOnUse">
<stop stop-color="#322D3C"/>
<stop offset="1" stop-color="#7D7887"/>
</linearGradient>
<clipPath id="clip0_37_22146">
<rect width="248" height="73.904" fill="white"/>
</clipPath>
</defs>
</svg>
