<svg width="14" height="14" viewBox="0 0 14 14" fill="none" xmlns="http://www.w3.org/2000/svg">
<g id="icons/setting/ic-night">
<path id="evaMoonFill2" d="M7.91105 11.4457L7.86379 11.4468C7.21579 11.4566 6.58095 11.3432 5.99643 11.1132C5.41192 10.8832 4.88948 10.5412 4.45971 10.1071C3.66398 9.2759 3.24062 8.17227 3.27134 7.00922C3.30206 5.84617 3.78468 4.70615 4.62606 3.80919C5.1674 3.24687 5.83559 2.8091 6.57321 2.53351C6.65931 2.50058 6.75191 2.49134 6.83994 2.5069C6.92797 2.52245 7.00772 2.56215 7.06966 2.62125C7.12693 2.6781 7.16581 2.74976 7.18215 2.82858C7.19849 2.90739 7.19167 2.9904 7.16243 3.06875C6.8724 3.75007 6.78749 4.48306 6.91766 5.1817C7.04783 5.88034 7.38768 6.51565 7.89734 7.01307C8.41212 7.50698 9.07356 7.84229 9.80505 7.9802C10.5366 8.1181 11.3082 8.05294 12.0306 7.79228C12.1166 7.762 12.2082 7.7551 12.2948 7.7724C12.3813 7.78969 12.4592 7.83047 12.5194 7.88995C12.5796 7.94943 12.6195 8.02516 12.6345 8.10828C12.6495 8.1914 12.639 8.27848 12.6042 8.35934C12.3346 8.97851 11.9319 9.54415 11.4233 10.0179C10.9502 10.4585 10.3964 10.8114 9.79361 11.0565C9.19086 11.3015 8.55109 11.4338 7.91105 11.4457Z" fill="#322D3C"/>
</g>
</svg>
