<svg width="36" height="36" viewBox="0 0 36 36" fill="none" xmlns="http://www.w3.org/2000/svg">
<path opacity="0.32" d="M20.7332 11.75H11.9335C11.1431 11.75 10.5 12.2171 10.5 12.792C10.5 13.3662 11.1431 13.8333 11.9335 13.8333H20.7332C21.5236 13.8333 22.1667 13.3662 22.1667 12.792C22.1667 12.2171 21.5236 11.75 20.7332 11.75Z" fill="#637381"/>
<path d="M24.0665 16.9583H15.2668C14.4764 16.9583 13.8333 17.4255 13.8333 18.0003C13.8333 18.5745 14.4764 19.0417 15.2668 19.0417H24.0665C24.8569 19.0417 25.5 18.5745 25.5 18.0003C25.5 17.4254 24.857 16.9583 24.0665 16.9583Z" fill="#637381"/>
<path d="M20.7332 22.1667H11.9335C11.1431 22.1667 10.5 22.6338 10.5 23.2087C10.5 23.7829 11.1431 24.25 11.9335 24.25H20.7332C21.5236 24.25 22.1667 23.7829 22.1667 23.2087C22.1667 22.6338 21.5236 22.1667 20.7332 22.1667Z" fill="#637381"/>
</svg>
